<?xml version="1.0" encoding="utf-8"?>
<!-- Generator: Adobe Illustrator 24.1.1, SVG Export Plug-In . SVG Version: 6.00 Build 0)  -->
<svg version="1.1" id="Layer_1" xmlns="http://www.w3.org/2000/svg" xmlns:xlink="http://www.w3.org/1999/xlink" x="0px" y="0px"
	 viewBox="0 0 500 500" style="enable-background:new 0 0 500 500;" xml:space="preserve">
<style type="text/css">
	.st0{fill:#49021F;}
	.st1{fill:#FF3366;}
</style>
<g id="InDesign" transform="translate(2511 308)">
	<path id="Прямоугольник_18" class="st0" d="M-2432.9-308h343.8c43.1,0,78.1,35,78.1,78.1v343.8
		c0,43.1-35,78.1-78.1,78.1h-343.8c-43.1,0-78.1-35-78.1-78.1v-343.8C-2511-273-2476-308-2432.9-308z"/>
	<path id="Контур_34" class="st1" d="M-2333.4-160.1V47c0,2.2-1,3.3-3,3.3h-37.8c-1.8,0-2.6-1.1-2.6-3.3v-207
		c0-1.8,1-2.6,3-2.6h37.8c1.3-0.2,2.5,0.7,2.6,2C-2333.4-160.5-2333.4-160.3-2333.4-160.1L-2333.4-160.1z"/>
	<path id="Контур_35" class="st1" d="M-2210.7,54.7c-15.2,0.2-30.3-2.9-44.1-9.2c-12.9-6-23.7-15.7-30.9-27.9
		c-8-14.3-11.8-30.4-11.2-46.8c-0.1-15.2,3.7-30.1,11.2-43.3c7.7-13.4,19-24.4,32.7-31.7c16-8.3,33.8-12.4,51.9-11.9
		c1.1,0,2.5,0.1,4.3,0.2c1.8,0.1,5.6,0.3,8,0.5v-62.5c0-1.5,0.7-2.3,2-2.3h38.3c1-0.1,1.8,0.5,2,1.5c0,0.2,0,0.3,0,0.5V14.4
		c0,3.7,0.2,7.8,0.5,12.2s0.6,8.4,0.8,11.9c0.1,1.4-0.7,2.7-2,3.3c-10.2,4.5-20.9,7.8-31.8,9.9
		C-2189.5,53.7-2200.1,54.7-2210.7,54.7z M-2188.8,13.8v-90.2c-2.4-0.5-4.8-0.8-7.2-1c-2.3-0.2-4.5-0.3-6.8-0.3
		c-8-0.1-15.9,1.7-23.1,5.3c-15.8,7.5-25.3,23.9-24.1,41.3c-0.2,7.2,1,14.4,3.5,21.1c2,5.5,5.2,10.4,9.2,14.5
		c3.9,3.8,8.7,6.6,13.9,8.3c5.5,1.8,11.2,2.7,17,2.6c3.1,0,5.9-0.1,8.6-0.3C-2194.8,14.9-2191.8,14.5-2188.8,13.8L-2188.8,13.8z"/>
</g>
</svg>
