<?xml version="1.0" encoding="utf-8"?>
<!-- Generator: Adobe Illustrator 24.1.1, SVG Export Plug-In . SVG Version: 6.00 Build 0)  -->
<svg version="1.1" id="Layer_1" xmlns="http://www.w3.org/2000/svg" xmlns:xlink="http://www.w3.org/1999/xlink" x="0px" y="0px"
	 viewBox="0 0 500 500" style="enable-background:new 0 0 500 500;" xml:space="preserve">
<style type="text/css">
	.st0{fill:#470137;}
	.st1{fill:#FF61F6;}
</style>
<g id="Layer_2_1_">
	<g id="Surfaces">
		<g id="UI_UX_Surface">
			<g id="Outline_no_shadow">
				<path class="st0" d="M88.5,6.3h322.9c49,0,88.5,39.6,88.5,88.5v310.4c0,49-39.6,88.5-88.5,88.5H88.5c-49,0-88.5-39.6-88.5-88.5
					V94.8C0,45.8,39.6,6.3,88.5,6.3z"/>
			</g>
		</g>
	</g>
	<g id="Outlined_Mnemonics_Logos">
		<g id="Xd">
			<path class="st1" d="M262.9,134.4l-62.5,103.1l66.7,109.4c0.4,0.8,0.6,1.7,0.4,2.5c-0.2,0.8-1,0.2-2.3,0.4h-47.7
				c-3.3,0-5.6-0.2-7.1-2.3c-4.4-8.8-9-17.3-13.3-26c-4.4-8.5-9.2-17.3-14.2-26.3c-5-9-10-17.9-15-27.1h-0.4
				c-4.4,9-9.2,17.9-14,26.9c-4.8,9-9.6,17.9-14.2,26.7c-4.8,8.8-9.6,17.7-14.4,26.3c-0.8,2.1-2.5,2.3-4.8,2.3H74.4
				c-0.8,0-1.5,0.4-1.5-0.6c-0.2-0.8,0-1.7,0.4-2.3L138.1,241L75,134.2c-0.6-0.8-0.8-1.7-0.4-2.1c0.4-0.6,1.3-0.8,2.1-0.8H124
				c1,0,2.1,0.2,2.9,0.4c0.8,0.4,1.5,1,2.1,1.9c4,9,8.5,17.9,13.3,26.9c5,9,9.8,17.7,15,26.5c5,8.7,9.6,17.5,14,26.5h0.4
				c4.4-9.2,9-18.1,13.5-26.9c4.6-8.7,9.4-17.5,14.2-26.3c4.8-8.7,9.4-17.7,14-26.2c0.2-0.8,0.6-1.7,1.3-2.1
				c0.8-0.4,1.7-0.6,2.7-0.4h44c1-0.2,2.1,0.4,2.3,1.5C263.8,133.1,263.3,134,262.9,134.4L262.9,134.4z"/>
			<path class="st1" d="M359.2,354.2c-15.4,0.2-30.8-2.9-44.8-9.4c-13.1-6-24-16-31.5-28.3c-7.7-12.7-11.5-28.5-11.5-47.5
				c-0.2-15.4,3.8-30.6,11.5-44c7.9-13.5,19.4-24.8,33.1-32.3c14.6-8.1,32.1-12.1,52.7-12.1c1,0,2.5,0,4.4,0.2s4,0.2,6.5,0.4v-65.8
				c0-1.5,0.6-2.3,2.1-2.3H424c1-0.2,1.9,0.6,2.1,1.5c0,0.2,0,0.4,0,0.4v198.3c0,3.8,0.2,7.9,0.4,12.5c0.4,4.4,0.6,8.5,0.8,12.1
				c0,1.5-0.6,2.7-2.1,3.3c-10.8,4.6-22.3,7.9-34,10C380.6,353.1,370,354.2,359.2,354.2z M379.6,312.5v-91.7c-1.9-0.4-3.8-0.8-5.6-1
				c-2.3-0.2-4.6-0.4-6.9-0.4c-8.1,0-16.3,1.7-23.5,5.4c-7.1,3.5-13.1,8.7-17.7,15.4c-4.6,6.7-6.9,15.6-6.9,26.5
				c-0.2,7.3,1,14.6,3.5,21.5c2.1,5.6,5.2,10.6,9.4,14.8c4,3.8,8.8,6.7,14.2,8.3c5.6,1.9,11.5,2.7,17.3,2.7c3.1,0,6-0.2,8.8-0.4
				C374.8,313.8,377.1,313.3,379.6,312.5z"/>
		</g>
	</g>
</g>
</svg>
